<svg width="1014.508" height="188.006" viewBox="0 0 1014.508 188.006" xmlns="http://www.w3.org/2000/svg"><g id="svgGroup" stroke-linecap="round" fill-rule="evenodd" font-size="9pt" stroke="#000" stroke-width="0.25mm" fill="#ed0e0e" style="stroke:#000;stroke-width:0.25mm;fill:#ed0e0e"><path d="M 921.25 131.75 L 912 185 L 889.5 185 L 922 0 L 944.5 0 L 930 82.25 Q 937.75 68.5 950.375 60.25 A 50.53 50.53 0 0 1 966.062 53.31 A 45.912 45.912 0 0 1 977 52 Q 994.25 52 1004.375 62.375 A 34.953 34.953 0 0 1 1014.5 87.743 A 67.051 67.051 0 0 1 1014.5 87.75 A 67.382 67.382 0 0 1 1014.323 92.431 Q 1014.154 94.848 1013.823 97.616 A 158.2 158.2 0 0 1 1013 103.5 L 998.75 185 L 976.25 185 L 990 107.25 Q 991.25 101.25 991.5 98.375 A 67.938 67.938 0 0 0 991.709 95.093 A 54.736 54.736 0 0 0 991.75 93 A 26.123 26.123 0 0 0 990.892 86.131 A 19.476 19.476 0 0 0 986.125 77.625 A 18.793 18.793 0 0 0 973.831 71.854 A 25.651 25.651 0 0 0 971.5 71.75 Q 964.264 71.75 955.917 76.024 A 58.863 58.863 0 0 0 952.375 78 A 49.086 49.086 0 0 0 942.506 85.962 Q 938.655 89.933 935.117 95.068 A 88.552 88.552 0 0 0 933.5 97.5 A 72.481 72.481 0 0 0 926.972 110.577 Q 924.488 117.012 922.715 124.607 A 138.549 138.549 0 0 0 921.25 131.75 Z M 676 133.25 L 667 185 L 644.5 185 L 667.25 55 L 689 55 L 683.5 85 A 65.708 65.708 0 0 1 698.148 65.875 A 62.304 62.304 0 0 1 704.375 61 Q 717.5 52 732 52 A 45.164 45.164 0 0 1 744.026 53.52 A 33.52 33.52 0 0 1 759.25 62.375 A 34.697 34.697 0 0 1 769.499 87.516 A 43.745 43.745 0 0 1 769.5 87.75 A 67.382 67.382 0 0 1 769.323 92.431 Q 769.154 94.848 768.823 97.616 A 158.2 158.2 0 0 1 768 103.5 L 753.75 185 L 731.25 185 L 745 107.25 Q 746.25 101.25 746.5 98.375 A 67.938 67.938 0 0 0 746.709 95.093 A 54.736 54.736 0 0 0 746.75 93 Q 746.75 83.25 741.125 77.5 A 18.803 18.803 0 0 0 730.123 72.025 A 26.319 26.319 0 0 0 726.25 71.75 Q 717.5 71.75 707.25 78.25 Q 698.361 83.887 690.695 94.882 A 94.14 94.14 0 0 0 688.375 98.375 Q 679.75 112 676 133.25 Z M 485.5 64.25 L 476.5 83.25 A 87.355 87.355 0 0 0 464.18 76.2 A 100.604 100.604 0 0 0 460.375 74.5 A 47.137 47.137 0 0 0 448.029 71.234 A 60.5 60.5 0 0 0 440.25 70.75 Q 432.571 70.75 427.134 72.459 A 22.793 22.793 0 0 0 422 74.75 Q 415.5 78.75 415.5 85.25 A 13.079 13.079 0 0 0 417.43 92.058 A 15.698 15.698 0 0 0 417.625 92.375 Q 419.645 95.583 424.826 99.129 A 54.19 54.19 0 0 0 425.375 99.5 A 94.316 94.316 0 0 0 429.342 101.99 Q 433.52 104.483 439.311 107.499 A 322.638 322.638 0 0 0 441.25 108.5 A 132.245 132.245 0 0 1 451.464 114.145 Q 456.211 117.07 459.97 120.065 A 54.873 54.873 0 0 1 466.5 126.125 A 31.721 31.721 0 0 1 474.7 146.455 A 41.069 41.069 0 0 1 474.75 148.5 A 41.269 41.269 0 0 1 473.55 158.701 A 30.8 30.8 0 0 1 467.75 170.5 A 40.595 40.595 0 0 1 453.913 181.502 A 50.764 50.764 0 0 1 449 183.625 Q 437.25 188 422.5 188 A 101.985 101.985 0 0 1 409.212 187.177 Q 401.892 186.214 395.625 184.125 A 80.211 80.211 0 0 1 383.69 179.095 A 64.044 64.044 0 0 1 375.5 174 L 388.25 155.5 A 57.771 57.771 0 0 0 398.186 161.965 A 71.566 71.566 0 0 0 404.25 164.75 A 51.642 51.642 0 0 0 419.771 168.321 A 61.374 61.374 0 0 0 424.5 168.5 Q 433.26 168.5 439.442 166.167 A 24.566 24.566 0 0 0 444.25 163.75 A 20.08 20.08 0 0 0 447.995 160.647 A 12.356 12.356 0 0 0 451.5 152 A 15.641 15.641 0 0 0 448.663 143.083 A 22.309 22.309 0 0 0 446.125 140 A 31.974 31.974 0 0 0 442.555 136.919 Q 436.633 132.441 425.25 126.75 Q 416.595 122.423 410.577 118.275 A 64.069 64.069 0 0 1 405.75 114.625 Q 399.129 109.068 396.311 102.729 A 25.138 25.138 0 0 1 396 102 A 36.447 36.447 0 0 1 393.721 93.403 A 48.52 48.52 0 0 1 393.25 86.5 Q 393.25 76.5 399.25 68.75 A 36.504 36.504 0 0 1 408.605 60.332 A 48.697 48.697 0 0 1 416 56.5 A 56.808 56.808 0 0 1 429.713 52.772 A 75.759 75.759 0 0 1 440.75 52 A 93.032 93.032 0 0 1 454.031 52.906 A 70.816 70.816 0 0 1 465.875 55.625 A 112.206 112.206 0 0 1 476.954 59.865 A 86.72 86.72 0 0 1 485.5 64.25 Z M 793 79.25 L 796.25 59.75 L 819.25 59.75 L 831.25 18.75 L 848.5 18.75 L 841.25 59.75 L 877.25 59.75 L 874 79.25 L 837.75 79.25 L 827.25 140 A 76.899 76.899 0 0 0 826.767 142.975 A 60.692 60.692 0 0 0 826.5 145.125 Q 826.25 147.5 826.25 149.5 A 23.487 23.487 0 0 0 826.87 155.058 A 15.84 15.84 0 0 0 831.5 163.125 A 17.903 17.903 0 0 0 840.667 167.604 A 25.371 25.371 0 0 0 845.25 168 A 41.243 41.243 0 0 0 850.571 167.676 Q 853.361 167.312 855.72 166.541 A 22.133 22.133 0 0 0 857.5 165.875 A 103.21 103.21 0 0 0 862.25 163.719 A 80.125 80.125 0 0 0 866.5 161.5 L 869.25 181 Q 864.5 183.75 857.375 185.875 Q 850.25 188 841.5 188 A 45.614 45.614 0 0 1 841.356 188 A 44.386 44.386 0 0 1 823.625 184.25 Q 815 180.5 809.5 172.375 A 30.084 30.084 0 0 1 805.332 162.866 Q 804 157.648 804 151.25 Q 804 145.836 804.969 139.211 A 114.842 114.842 0 0 1 805 139 L 815.25 79.25 L 793 79.25 Z M 0 185 L 30.25 12.5 A 207.741 207.741 0 0 1 42.662 10.293 A 248.643 248.643 0 0 1 50.625 9.25 Q 61.5 8 74.75 8 A 95.593 95.593 0 0 1 88.988 9.002 Q 100.063 10.672 108.5 15.125 A 54.554 54.554 0 0 1 120.124 23.229 A 44.257 44.257 0 0 1 128.625 33.875 Q 135.25 45.5 135.25 58.75 Q 135.25 79.25 125.25 93.125 A 59.626 59.626 0 0 1 104.049 111.216 A 73.867 73.867 0 0 1 97.75 114.125 A 95.26 95.26 0 0 1 74.339 120.206 A 123.459 123.459 0 0 1 58 121.25 Q 52 121.25 46.125 120.625 A 86.293 86.293 0 0 1 39.29 119.631 A 70.282 70.282 0 0 1 35.25 118.75 L 23.75 185 L 0 185 Z M 364.5 61 L 348.75 149.75 Q 348.5 151 348.375 152.625 A 43.408 43.408 0 0 0 348.252 155.537 A 48.31 48.31 0 0 0 348.25 156 A 19.145 19.145 0 0 0 348.564 159.6 Q 348.942 161.571 349.776 163.073 A 8.444 8.444 0 0 0 352.25 165.875 A 14.402 14.402 0 0 0 357.04 168.075 Q 359.041 168.602 361.401 168.718 A 27.656 27.656 0 0 0 362.75 168.75 L 355 186.25 A 44.196 44.196 0 0 1 347.185 185.603 Q 342.797 184.814 339.335 183.061 A 21.502 21.502 0 0 1 334.375 179.625 A 20.394 20.394 0 0 1 329.059 171.237 Q 327.9 167.917 327.484 163.829 A 47.685 47.685 0 0 1 327.25 159 Q 320.25 171 309.625 179.5 Q 299 188 284.75 188 Q 272.5 188 261.75 181.375 A 48.703 48.703 0 0 1 246.688 166.63 A 59.318 59.318 0 0 1 244.25 162.625 A 52.139 52.139 0 0 1 238.614 146.596 A 70.802 70.802 0 0 1 237.5 133.75 A 93.945 93.945 0 0 1 240.156 110.969 A 76.273 76.273 0 0 1 248.125 91.125 Q 258.75 72.75 277.5 62.375 Q 296.25 52 320.25 52 A 123.276 123.276 0 0 1 332.462 52.574 Q 338.71 53.197 344.141 54.496 A 71.34 71.34 0 0 1 346.125 55 Q 354.408 57.234 360.542 59.467 A 98.511 98.511 0 0 1 364.5 61 Z M 623.5 61 L 607.75 149.75 Q 607.5 151 607.375 152.625 A 43.408 43.408 0 0 0 607.252 155.537 A 48.31 48.31 0 0 0 607.25 156 A 19.145 19.145 0 0 0 607.564 159.6 Q 607.942 161.571 608.776 163.073 A 8.444 8.444 0 0 0 611.25 165.875 A 14.402 14.402 0 0 0 616.04 168.075 Q 618.041 168.602 620.401 168.718 A 27.656 27.656 0 0 0 621.75 168.75 L 614 186.25 A 44.196 44.196 0 0 1 606.185 185.603 Q 601.797 184.814 598.335 183.061 A 21.502 21.502 0 0 1 593.375 179.625 A 20.394 20.394 0 0 1 588.059 171.237 Q 586.9 167.917 586.484 163.829 A 47.685 47.685 0 0 1 586.25 159 Q 579.25 171 568.625 179.5 Q 558 188 543.75 188 Q 531.5 188 520.75 181.375 A 48.703 48.703 0 0 1 505.688 166.63 A 59.318 59.318 0 0 1 503.25 162.625 A 52.139 52.139 0 0 1 497.614 146.596 A 70.802 70.802 0 0 1 496.5 133.75 A 93.945 93.945 0 0 1 499.156 110.969 A 76.273 76.273 0 0 1 507.125 91.125 Q 517.75 72.75 536.5 62.375 Q 555.25 52 579.25 52 A 123.276 123.276 0 0 1 591.462 52.574 Q 597.71 53.197 603.141 54.496 A 71.34 71.34 0 0 1 605.125 55 Q 613.408 57.234 619.542 59.467 A 98.511 98.511 0 0 1 623.5 61 Z M 142.5 185 L 159 91.5 Q 159.25 90.25 159.375 88.625 A 43.408 43.408 0 0 0 159.498 85.713 A 48.31 48.31 0 0 0 159.5 85.25 A 19.145 19.145 0 0 0 159.186 81.65 Q 158.808 79.679 157.974 78.177 A 8.444 8.444 0 0 0 155.5 75.375 A 14.402 14.402 0 0 0 150.71 73.175 Q 148.709 72.648 146.349 72.532 A 27.656 27.656 0 0 0 145 72.5 L 152.75 55 A 44.214 44.214 0 0 1 160.61 55.654 Q 164.986 56.446 168.441 58.195 A 21.651 21.651 0 0 1 173.125 61.375 A 20.288 20.288 0 0 1 179.074 71.105 Q 180.03 74.409 180.209 78.381 A 41.482 41.482 0 0 1 180.25 80.25 L 180.25 85.25 Q 185.567 72.232 193.103 64.593 A 38.811 38.811 0 0 1 198.875 59.75 A 44.785 44.785 0 0 1 224.298 52.002 A 53.989 53.989 0 0 1 224.75 52 A 63.354 63.354 0 0 1 229.154 52.144 Q 232.176 52.355 234.625 52.875 Q 238.75 53.75 241.5 55 L 231.5 77 Q 228.5 75.75 225.25 75.25 A 40.011 40.011 0 0 0 222.215 74.908 Q 220.659 74.79 218.926 74.76 A 68.727 68.727 0 0 0 217.75 74.75 A 27.308 27.308 0 0 0 206.409 77.303 A 38.248 38.248 0 0 0 199.875 81.125 A 37.77 37.77 0 0 0 193.081 87.535 Q 188.161 93.377 183.875 102.25 Q 179.088 112.16 175.486 127.036 A 249.35 249.35 0 0 0 172.25 142.75 L 165 185 L 142.5 185 Z M 333 113 L 339.75 74.25 Q 335 72.75 329.875 71.875 A 55.324 55.324 0 0 0 325.36 71.308 Q 323.138 71.116 320.623 71.043 A 108.768 108.768 0 0 0 317.5 71 A 64.934 64.934 0 0 0 302.317 72.703 A 51.427 51.427 0 0 0 287.5 78.75 Q 274.75 86.5 267.625 100.125 A 62.694 62.694 0 0 0 260.945 122.602 A 77.487 77.487 0 0 0 260.5 131 A 54.649 54.649 0 0 0 261.219 140.111 Q 262.273 146.344 264.875 151.25 A 35.218 35.218 0 0 0 269.906 158.5 A 28.665 28.665 0 0 0 276.25 163.75 A 29.397 29.397 0 0 0 284.625 167.271 A 26.022 26.022 0 0 0 290.75 168 A 28.493 28.493 0 0 0 308.296 161.95 A 36.149 36.149 0 0 0 309.5 161 A 48.596 48.596 0 0 0 317.634 152.319 Q 321.158 147.555 324.125 141.5 A 96 96 0 0 0 330.4 124.737 A 121.729 121.729 0 0 0 333 113 Z M 592 113 L 598.75 74.25 Q 594 72.75 588.875 71.875 A 55.324 55.324 0 0 0 584.36 71.308 Q 582.138 71.116 579.623 71.043 A 108.768 108.768 0 0 0 576.5 71 A 64.934 64.934 0 0 0 561.317 72.703 A 51.427 51.427 0 0 0 546.5 78.75 Q 533.75 86.5 526.625 100.125 A 62.694 62.694 0 0 0 519.945 122.602 A 77.487 77.487 0 0 0 519.5 131 A 54.649 54.649 0 0 0 520.219 140.111 Q 521.273 146.344 523.875 151.25 A 35.218 35.218 0 0 0 528.906 158.5 A 28.665 28.665 0 0 0 535.25 163.75 A 29.397 29.397 0 0 0 543.625 167.271 A 26.022 26.022 0 0 0 549.75 168 A 28.493 28.493 0 0 0 567.296 161.95 A 36.149 36.149 0 0 0 568.5 161 A 48.596 48.596 0 0 0 576.634 152.319 Q 580.158 147.555 583.125 141.5 A 96 96 0 0 0 589.4 124.737 A 121.729 121.729 0 0 0 592 113 Z M 51 29.5 L 38.75 98.75 A 56.162 56.162 0 0 0 45.689 100.342 A 67.8 67.8 0 0 0 49.625 100.875 Q 55.5 101.5 61.25 101.5 A 100.515 100.515 0 0 0 75.086 100.616 Q 90.775 98.429 99.366 90.828 A 29.804 29.804 0 0 0 100 90.25 Q 112 79 112 61.5 A 34.197 34.197 0 0 0 109.758 48.922 A 31.091 31.091 0 0 0 101.625 37.25 A 33.919 33.919 0 0 0 88.167 29.837 Q 82.964 28.288 76.716 27.889 A 70.022 70.022 0 0 0 72.25 27.75 Q 66.449 27.75 61.849 28.119 A 86.226 86.226 0 0 0 60.375 28.25 Q 55.25 28.75 51 29.5 Z" vector-effect="non-scaling-stroke"/></g></svg>